<svg xmlns="http://www.w3.org/2000/svg" viewBox="0 0 48 48" fill="none"><path fill-opacity=".94" fill="#010204" d="M19.378 5.342a5.126 5.126 0 0 1 9.868.22 5.126 5.126 0 0 1 6.686 3.736 5.124 5.124 0 0 1 6.766 4.854V28.68a15.927 15.927 0 0 1-28.772 9.12l-7.46-9.546a5.492 5.492 0 0 1 6.044-8.598v-9.494a5.124 5.124 0 0 1 6.868-4.82Zm-.22 4.82a1.524 1.524 0 1 0-3.048 0v13.216a1.8 1.8 0 0 1-3.218 1.108l-.606-.776a1.89 1.89 0 0 0-2.697-.381 1.892 1.892 0 0 0-.283 2.709l7.474 9.57.02.026.014.02a12.328 12.328 0 0 0 22.284-7.09V14.15a1.524 1.524 0 0 0-3.032-.214v6.31a1.8 1.8 0 1 1-3.6 0v-5.862a1.818 1.818 0 0 1-.014-.232v-3.75a1.524 1.524 0 0 0-3.034-.208v10.054a1.8 1.8 0 1 1-3.6 0v-9.62a1.857 1.857 0 0 1-.014-.226V6.828a1.522 1.522 0 0 0-2.62-1.113 1.524 1.524 0 0 0-.426 1.113v.45c.01.075.014.15.014.226v12.74a1.8 1.8 0 1 1-3.6 0v-9.856a1.837 1.837 0 0 1-.014-.226Z" clip-rule="evenodd" fill-rule="evenodd" data-follow-fill="#010204"/></svg>