<svg xmlns="http://www.w3.org/2000/svg" viewBox="0 0 24 24" fill="none"><path data-follow-fill="currentColor" d="M12.05 1.5c5.278 0 9.55 4.338 9.55 9.55 0 .563-.053 1.108-.152 1.635a1 1 0 0 1-1.966-.37c.077-.407.118-.829.118-1.265 0-4.116-3.385-7.55-7.55-7.55S4.5 6.934 4.5 11.05c0 2.022.868 3.773 2.152 5.264 1.29 1.498 2.96 2.685 4.443 3.542.532.309.625.35.763.374.091.017.275.017.366 0 .138-.027.232-.07.77-.385a1 1 0 0 1 1.013 1.724c-.46.271-.867.522-1.412.625a3.26 3.26 0 0 1-1.094.004c-.546-.1-.95-.345-1.408-.61-1.59-.92-3.467-2.24-4.956-3.969C3.642 15.884 2.5 13.687 2.5 11.05c0-5.21 4.271-9.55 9.55-9.55Z" fill="currentColor" fill-opacity=".94"/><path data-follow-fill="currentColor" d="M18 14a1 1 0 0 1 1 1v2h2a1 1 0 1 1 0 2h-2v2a1 1 0 1 1-2 0v-2h-2a1 1 0 1 1 0-2h2v-2a1 1 0 0 1 1-1Zm-6-5a2 2 0 1 1 0 4 2 2 0 0 1 0-4Z" fill="currentColor" fill-opacity=".94"/></svg>