<svg xmlns="http://www.w3.org/2000/svg" viewBox="0 0 24 24" fill="none"><path data-follow-fill="currentColor" fill-rule="evenodd" clip-rule="evenodd" d="M15.337 3.315c1.331-.846 3.073.11 3.073 1.688v10.772c0 1.623-1.832 2.57-3.156 1.632l-2.589-1.834-.96.092v3.28a2 2 0 0 1-2 2H8.353a2 2 0 0 1-2-2V15.92c0 .008.003.001-.012-.02a.29.29 0 0 0-.104-.087 6.034 6.034 0 0 1-3.233-5.15L3 10.445c0-3.312 2.643-6.028 5.94-6.028h.095l.008.001.024.001c.284.005.553.029.803.076l3.123.312 2.344-1.492Zm-1.27 3.18a2 2 0 0 1-1.272.302l-3.157-.315-.055-.005-.054-.011a2.709 2.709 0 0 0-.498-.047l-.036-.001-.004-.001H8.94C6.781 6.417 5 8.204 5 10.445l.01.293a4.031 4.031 0 0 0 2.15 3.3c.633.33 1.192 1.004 1.193 1.882v3.024h1.352v-3.279a2 2 0 0 1 1.812-1.991l.96-.092a2 2 0 0 1 1.344.36l2.59 1.833V5.003l-2.345 1.491Z" fill="currentColor" fill-opacity=".94"/><path data-follow-fill="currentColor" d="M21.034 7.253a1 1 0 0 1 1.245.67v.003l.001.002.002.005.004.016.015.052.045.178c.036.15.083.364.129.632.091.534.181 1.29.181 2.194 0 .904-.09 1.66-.181 2.194a9.847 9.847 0 0 1-.174.81l-.015.052-.004.015-.002.006v.002l-.959-.285.958.287a1 1 0 0 1-1.916-.575l.007-.026a7.945 7.945 0 0 0 .133-.624 11.09 11.09 0 0 0 .153-1.856c0-.772-.077-1.414-.153-1.857a7.973 7.973 0 0 0-.133-.625l-.007-.024a1.001 1.001 0 0 1 .671-1.246Z" fill="currentColor" fill-opacity=".94"/></svg>